<?xml version="1.0" encoding="iso-8859-1"?>
<!-- Generator: Adobe Illustrator 19.0.0, SVG Export Plug-In . SVG Version: 6.00 Build 0)  -->
<svg version="1.1" id="Capa_1" xmlns="http://www.w3.org/2000/svg" xmlns:xlink="http://www.w3.org/1999/xlink" x="0px" y="0px"
	 viewBox="0 0 512 512" style="fill:rgba(210,210,210,1); enable-background:new 0 0 512 512;" xml:space="preserve">
<g>
	<g>
		<path d="M254.244,227.491c-29.085-52.575-58.59-97.261-58.884-97.706c-2.778-4.197-7.476-6.722-12.509-6.722
			s-9.731,2.524-12.509,6.722c-0.294,0.445-29.799,45.131-58.884,97.706c-39.908,72.138-60.143,124.547-60.143,155.771
			c0,36.904,13.803,70.186,38.866,93.715C114.237,499.562,147.148,512,182.851,512c35.701,0,68.612-12.438,92.67-35.023
			c25.063-23.529,38.866-56.811,38.866-93.715C314.387,352.038,294.151,299.629,254.244,227.491z"/>
	</g>
</g>
<g>
	<g>
		<path d="M424.409,64.826C407.117,33.571,390.106,7.804,389.39,6.722C386.613,2.524,381.915,0,376.881,0s-9.731,2.524-12.509,6.723
			c-0.716,1.081-17.728,26.849-35.018,58.104c-24.411,44.125-36.277,75.181-36.277,94.942c0,23.503,8.838,44.744,24.886,59.81
			c15.347,14.408,36.271,22.343,58.918,22.343c22.647,0,43.571-7.935,58.919-22.343c16.048-15.065,24.886-36.307,24.886-59.81
			C460.686,140.007,448.82,108.951,424.409,64.826z"/>
	</g>
</g>
<g>
</g>
<g>
</g>
<g>
</g>
<g>
</g>
<g>
</g>
<g>
</g>
<g>
</g>
<g>
</g>
<g>
</g>
<g>
</g>
<g>
</g>
<g>
</g>
<g>
</g>
<g>
</g>
<g>
</g>
</svg>
