<svg id="Layer_1" style="fill:rgba(175,255,250,1);" enable-background="new 0 0 512.375 512.375" height="512" viewBox="0 0 512.375 512.375" width="512" xmlns="http://www.w3.org/2000/svg"><g><path d="m447.857 127.032c-4.538-70.814-63.593-127.032-135.533-127.032-25.815 0-50.934 7.277-72.642 21.045-16.3 10.338-30.15 23.963-40.707 39.937-12.642-6.789-26.869-10.42-41.372-10.42-23.136 0-44.943 8.953-61.402 25.208-13.572 13.405-22.229 30.507-25.015 49.06-18.286 5.387-34.791 16.028-47.322 30.683-15.3 17.894-23.726 40.73-23.726 64.301 0 54.589 44.412 99.001 99.001 99.001h314.094c54.59 0 99.002-44.412 99.002-99.001.001-41.889-25.949-78.532-64.378-92.782z"/><g><path d="m183.658 512.375c-8.284 0-15-6.716-15-15v-117.236c0-8.284 6.716-15 15-15s15 6.716 15 15v117.235c0 8.285-6.716 15.001-15 15.001z"/></g><g><path d="m337.656 511.77c-8.284 0-15-6.716-15-15v-117.235c0-8.284 6.716-15 15-15s15 6.716 15 15v117.235c0 8.284-6.716 15-15 15z"/></g><g><path d="m91.659 348.243v120.539c0 8.284 6.716 15 15 15s15-6.716 15-15v-120.539z"/><path d="m245.657 348.243v120.539c0 8.284 6.716 15 15 15s15-6.716 15-15v-120.539z"/><path d="m399.656 348.243v120.539c0 8.284 6.716 15 15 15s15-6.716 15-15v-120.539z"/></g></g></svg>