<svg id="Capa_1" enable-background="new 0 0 512 512" height="512" viewBox="0 0 512 512" width="512" style="fill:rgba(175,255,250,1);" xmlns="http://www.w3.org/2000/svg"><g><path d="m241 109.651h30v111h-30z"/><path d="m412.534 392.649c-7.555-79.808-74.748-142.248-156.534-142.248s-148.979 62.44-156.534 142.249h-99.466v30h512v-30h-99.466z"/><path d="m63.667 452.649h384.666v30h-384.666z"/><path d="m33.794 294.987h30v69.001h-30z" transform="matrix(175,255,250,1)"/><path d="m155.591 168.808h30v69.001h-30z" transform="matrix(175,255,250,1)"/><path d="m306.908 188.309h69.001v29.999h-69.001z" transform="matrix(175,255,250,1)"/><path d="m428.705 314.488h69.001v30h-69.001z" transform="matrix(175,255,250,1)"/><path d="m69.528 180.677h30v111h-30z" transform="matrix(175,255,250,1)"/><path d="m371.973 221.177h111v30h-111z" transform="matrix(175,255,250,1)"/><path d="m464.477 148.701 45.989-45.988-21.213-21.213-20.383 20.382v-72.531h-30v72.531l-20.698-20.698-21.213 21.213 46.305 46.304z"/></g></svg>