<?xml version="1.0" encoding="iso-8859-1"?>
<!-- Generator: Adobe Illustrator 19.0.0, SVG Export Plug-In . SVG Version: 6.00 Build 0)  -->
<svg version="1.1" id="Capa_1" xmlns="http://www.w3.org/2000/svg" xmlns:xlink="http://www.w3.org/1999/xlink" x="0px" y="0px"
	 viewBox="0 0 340 340" style="fill:rgba(210,210,210,1); enable-background:new 0 0 340 340;" xml:space="preserve">
<g>
	<g>
		<g>
			<path d="M192.4,226.4c-2-4-4.8-7.2-7.6-10.4c-3.2-3.2-6.4-6-10-8.4l-3.6-2.4v-4V60c0-13.2-10.4-24.4-24.4-24.4
				c-3.2,0-6.4,0.8-9.2,2c-9.2,4-15.2,12.4-15.2,22.4v141.2v4l-3.6,2.4c-3.6,2.4-7.2,5.2-10,8.4c-3.2,3.2-5.6,6.8-7.6,10.4
				c-2,3.6-3.6,8-4.8,12s-1.6,8.4-1.6,12.8c0,6.8,1.6,13.6,4,20c2.8,6.4,6.4,12,11.2,16.8s10.4,8.8,16.8,11.2c6,2.4,12.8,4,20,4
				c7.2,0,13.6-1.6,20-4c6.4-2.8,12-6.4,16.8-11.2c4.8-4.8,8.8-10.4,11.2-16.8c2.4-6,4-12.8,4-20c0-4.4-0.4-8.8-1.6-12.8
				C196,234.4,194.4,230.4,192.4,226.4z"/>
			<path d="M223.6,209.2c-2.8-4.8-5.6-9.2-9.2-13.6c-2.4-2.8-5.2-5.6-7.6-8.4V60c0-8-1.6-16-4.4-22.8C192.8,14.4,171.6,0,146.8,0
				c-24.8,0-46,14.4-55.6,37.2C88.4,44.4,86.8,52,86.8,60v127.6c-2.8,2.4-5.2,5.2-7.6,8.4c-3.6,4.4-6.4,8.8-9.2,13.6
				c-3.6,6.4-6.4,13.2-8,20.4c-2,7.2-2.8,14.4-2.8,22c0,12,2.4,23.2,6.8,33.6c4.4,10.8,11.2,20.4,19.2,28.4s17.6,14.4,28.4,19.2
				c10.4,4.4,21.6,6.8,33.6,6.8s23.2-2.4,33.6-6.8c10.8-4.4,20.4-11.2,28.4-19.2s14.4-17.6,19.2-28.4c4.4-10.4,6.8-21.6,6.8-33.6
				c0-7.6-0.8-14.8-2.8-22C230,222.4,227.2,215.6,223.6,209.2z M208.8,277.2c-3.2,8-8.4,15.6-14.8,22c-6.4,6.4-13.6,11.2-22,14.8
				c-8,3.2-16.4,5.2-25.6,5.2s-18-2-25.6-5.2c-8-3.2-15.6-8.4-22-14.8c-6.4-6.4-11.2-13.6-14.8-22c-3.2-8-5.2-16.4-5.2-25.6
				c0-6,0.8-11.6,2-16.8c1.2-5.6,3.6-10.8,6.4-15.6c2-3.6,4.4-7.2,6.8-10.4c2.8-3.2,5.6-6,8.8-8.8l3.6-3.2V192V60
				c0-5.2,1.2-10.4,2.8-15.2c2-4.4,4.4-8.4,7.6-12l0.8-0.8c3.6-3.6,8-6.8,12.8-8.8s9.6-2.8,15.2-2.8c5.2,0,10.4,1.2,15.2,2.8
				c4.8,2,9.2,4.8,12.8,8.8l0.8,0.8c3.2,3.6,6,7.6,7.6,12c2,4.8,2.8,9.6,2.8,15.2v132.4v4.8l3.6,3.2c3.2,2.8,6,5.6,8.8,8.8
				c2.4,3.2,4.8,6.8,6.8,10.4c2.8,4.8,4.8,10.4,6.4,15.6c1.2,5.2,2,10.8,2,16.8C214,260.8,212,269.6,208.8,277.2z"/>
			<path d="M270.4,153.6H224c-5.6,0-10.4,4.4-10.4,10.4c0,5.6,4.4,10.4,10.4,10.4h46.4c5.6,0,10.4-4.4,10.4-10.4
				S276,153.6,270.4,153.6z"/>
			<path d="M224,68h30.4c5.6,0,10.4-4.4,10.4-10.4c0-5.6-4.4-10.4-10.4-10.4H224c-5.6,0-10.4,4.4-10.4,10.4S218.4,68,224,68z"/>
			<path d="M224,103.6h46.4c5.6,0,10.4-4.4,10.4-10.4c-0.4-6-4.8-10.4-10.4-10.4H224c-5.6,0-10.4,4.4-10.4,10.4
				C213.6,98.8,218,103.6,224,103.6z"/>
			<path d="M224,138.8h30.4c5.6,0,10.4-4.4,10.4-10.4c0-5.6-4.4-10.4-10.4-10.4H224c-5.6,0-10.4,4.4-10.4,10.4
				C213.6,134,218.4,138.8,224,138.8z"/>
		</g>
	</g>
</g>
<g>
</g>
<g>
</g>
<g>
</g>
<g>
</g>
<g>
</g>
<g>
</g>
<g>
</g>
<g>
</g>
<g>
</g>
<g>
</g>
<g>
</g>
<g>
</g>
<g>
</g>
<g>
</g>
<g>
</g>
</svg>
