<svg height="512pt" style="fill:rgba(175,255,250,1);" viewBox="0 0 512 512" width="512pt" xmlns="http://www.w3.org/2000/svg"><path d="m216.5625 377.667969 32.945312-6.101563v-231.132812l-32.945312-6.101563zm0 0"/><path d="m350.667969 159.15625-71.160157-13.171875v220.03125l71.160157-13.171875zm0 0"/><path d="m413.613281 170.808594-32.945312-6.097656v182.578124l32.945312-6.097656zm0 0"/><path d="m443.613281 176.363281v159.273438l68.386719-12.660157v-133.953124zm0 0"/><path d="m186.5625 383.21875v-254.4375l-80.5625-14.914062v23.644531l-43.125 48.699219v-92.882813c19.070312-6.308594 32.875-24.292969 32.875-45.453125 0-26.398438-21.476562-47.875-47.875-47.875s-47.875 21.476562-47.875 47.875c0 21.160156 13.804688 39.144531 32.875 45.453125v418.671875h30v-184.207031l43.125 48.703125v21.636718zm-123.6875-100.679688v-51.074218l43.125-48.699219v148.476563zm0 0"/></svg>